<svg width="283" height="64" viewBox="0 0 283 64" fill="none" xmlns="http://www.w3.org/2000/svg">
<path d="M19.5 44V20.7273H35.8636V25.8182H25.8182V29.8182H34.8636V34.9091H25.8182V44H19.5ZM57.4002 20.7273H63.7184V35.6364C63.7184 37.4091 63.2942 38.9432 62.4457 40.2386C61.6048 41.5265 60.4305 42.5227 58.923 43.2273C57.4154 43.9242 55.6654 44.2727 53.673 44.2727C51.6654 44.2727 49.9078 43.9242 48.4002 43.2273C46.8927 42.5227 45.7184 41.5265 44.8775 40.2386C44.0442 38.9432 43.6275 37.4091 43.6275 35.6364V20.7273H49.9457V35.0909C49.9457 35.8106 50.1048 36.4545 50.423 37.0227C50.7411 37.5833 51.1805 38.0227 51.7411 38.3409C52.3093 38.6591 52.9533 38.8182 53.673 38.8182C54.4002 38.8182 55.0442 38.6591 55.6048 38.3409C56.1654 38.0227 56.6048 37.5833 56.923 37.0227C57.2411 36.4545 57.4002 35.8106 57.4002 35.0909V20.7273ZM72.1613 44V20.7273H78.4794V38.9091H87.8885V44H72.1613ZM95.8825 44V20.7273H102.201V38.9091H111.61V44H95.8825ZM131.419 44V20.7273H147.782V25.8182H137.737V29.8182H146.782V34.9091H137.737V44H131.419ZM178.092 32.3636C178.092 34.9545 177.588 37.1402 176.58 38.9205C175.573 40.6932 174.213 42.0379 172.501 42.9545C170.789 43.8636 168.88 44.3182 166.774 44.3182C164.652 44.3182 162.736 43.8598 161.024 42.9432C159.319 42.0189 157.963 40.6705 156.955 38.8977C155.955 37.1174 155.455 34.9394 155.455 32.3636C155.455 29.7727 155.955 27.5909 156.955 25.8182C157.963 24.0379 159.319 22.6932 161.024 21.7841C162.736 20.8674 164.652 20.4091 166.774 20.4091C168.88 20.4091 170.789 20.8674 172.501 21.7841C174.213 22.6932 175.573 24.0379 176.58 25.8182C177.588 27.5909 178.092 29.7727 178.092 32.3636ZM171.592 32.3636C171.592 30.9697 171.406 29.7955 171.035 28.8409C170.671 27.8788 170.13 27.1515 169.41 26.6591C168.698 26.1591 167.819 25.9091 166.774 25.9091C165.728 25.9091 164.845 26.1591 164.126 26.6591C163.414 27.1515 162.872 27.8788 162.501 28.8409C162.137 29.7955 161.955 30.9697 161.955 32.3636C161.955 33.7576 162.137 34.9356 162.501 35.8977C162.872 36.8523 163.414 37.5795 164.126 38.0795C164.845 38.572 165.728 38.8182 166.774 38.8182C167.819 38.8182 168.698 38.572 169.41 38.0795C170.13 37.5795 170.671 36.8523 171.035 35.8977C171.406 34.9356 171.592 33.7576 171.592 32.3636ZM208.182 29.4545H201.773C201.728 28.9242 201.607 28.4432 201.41 28.0114C201.22 27.5795 200.955 27.2083 200.614 26.8977C200.281 26.5795 199.875 26.3371 199.398 26.1705C198.921 25.9962 198.379 25.9091 197.773 25.9091C196.713 25.9091 195.815 26.1667 195.08 26.6818C194.353 27.197 193.8 27.9356 193.421 28.8977C193.05 29.8598 192.864 31.0152 192.864 32.3636C192.864 33.7879 193.053 34.9811 193.432 35.9432C193.819 36.8977 194.375 37.6174 195.103 38.1023C195.83 38.5795 196.705 38.8182 197.728 38.8182C198.311 38.8182 198.834 38.7462 199.296 38.6023C199.758 38.4508 200.16 38.2348 200.5 37.9545C200.841 37.6742 201.118 37.3371 201.33 36.9432C201.55 36.5417 201.697 36.0909 201.773 35.5909L208.182 35.6364C208.107 36.6212 207.83 37.625 207.353 38.6477C206.875 39.6629 206.197 40.6023 205.319 41.4659C204.447 42.322 203.368 43.0114 202.08 43.5341C200.792 44.0568 199.296 44.3182 197.591 44.3182C195.455 44.3182 193.538 43.8598 191.841 42.9432C190.152 42.0265 188.815 40.678 187.83 38.8977C186.853 37.1174 186.364 34.9394 186.364 32.3636C186.364 29.7727 186.864 27.5909 187.864 25.8182C188.864 24.0379 190.213 22.6932 191.91 21.7841C193.607 20.8674 195.5 20.4091 197.591 20.4091C199.061 20.4091 200.413 20.6098 201.648 21.0114C202.883 21.4129 203.966 22 204.898 22.7727C205.83 23.5379 206.58 24.4811 207.148 25.6023C207.716 26.7235 208.061 28.0076 208.182 29.4545ZM230.261 20.7273H236.58V35.6364C236.58 37.4091 236.155 38.9432 235.307 40.2386C234.466 41.5265 233.292 42.5227 231.784 43.2273C230.277 43.9242 228.527 44.2727 226.534 44.2727C224.527 44.2727 222.769 43.9242 221.261 43.2273C219.754 42.5227 218.58 41.5265 217.739 40.2386C216.905 38.9432 216.489 37.4091 216.489 35.6364V20.7273H222.807V35.0909C222.807 35.8106 222.966 36.4545 223.284 37.0227C223.602 37.5833 224.042 38.0227 224.602 38.3409C225.171 38.6591 225.815 38.8182 226.534 38.8182C227.261 38.8182 227.905 38.6591 228.466 38.3409C229.027 38.0227 229.466 37.5833 229.784 37.0227C230.102 36.4545 230.261 35.8106 230.261 35.0909V20.7273ZM257.568 28C257.507 27.2424 257.223 26.6515 256.716 26.2273C256.216 25.803 255.454 25.5909 254.432 25.5909C253.78 25.5909 253.246 25.6705 252.829 25.8295C252.42 25.9811 252.117 26.1894 251.92 26.4545C251.723 26.7197 251.621 27.0227 251.613 27.3636C251.598 27.6439 251.648 27.8977 251.761 28.125C251.882 28.3447 252.072 28.5455 252.329 28.7273C252.587 28.9015 252.916 29.0606 253.318 29.2045C253.719 29.3485 254.197 29.4773 254.75 29.5909L256.659 30C257.947 30.2727 259.049 30.6326 259.966 31.0795C260.882 31.5265 261.632 32.053 262.216 32.6591C262.799 33.2576 263.227 33.9318 263.5 34.6818C263.78 35.4318 263.924 36.25 263.932 37.1364C263.924 38.6667 263.541 39.9621 262.784 41.0227C262.026 42.0833 260.943 42.8902 259.534 43.4432C258.132 43.9962 256.447 44.2727 254.477 44.2727C252.454 44.2727 250.689 43.9735 249.182 43.375C247.682 42.7765 246.515 41.8561 245.682 40.6136C244.856 39.3636 244.439 37.7652 244.432 35.8182H250.432C250.469 36.5303 250.648 37.1288 250.966 37.6136C251.284 38.0985 251.731 38.4659 252.307 38.7159C252.89 38.9659 253.583 39.0909 254.386 39.0909C255.06 39.0909 255.625 39.0076 256.079 38.8409C256.534 38.6742 256.879 38.4432 257.113 38.1477C257.348 37.8523 257.469 37.5152 257.477 37.1364C257.469 36.7803 257.352 36.4697 257.125 36.2045C256.905 35.9318 256.541 35.6894 256.034 35.4773C255.526 35.2576 254.841 35.053 253.977 34.8636L251.659 34.3636C249.598 33.9167 247.973 33.1705 246.784 32.125C245.602 31.072 245.015 29.6364 245.023 27.8182C245.015 26.3409 245.409 25.0492 246.204 23.9432C247.007 22.8295 248.117 21.9621 249.534 21.3409C250.958 20.7197 252.591 20.4091 254.432 20.4091C256.31 20.4091 257.935 20.7235 259.307 21.3523C260.678 21.9811 261.735 22.8674 262.477 24.0114C263.227 25.1477 263.606 26.4773 263.613 28H257.568Z" fill="black"/>
</svg>
